<?xml version="1.0" encoding="utf-8"?>
<!-- Generator: Adobe Illustrator 26.0.0, SVG Export Plug-In . SVG Version: 6.00 Build 0)  -->
<svg version="1.1" id="Layer_1" xmlns="http://www.w3.org/2000/svg" xmlns:xlink="http://www.w3.org/1999/xlink" x="0px" y="0px"
	 viewBox="0 0 845.8 800" style="enable-background:new 0 0 845.8 800;" xml:space="preserve">
<style type="text/css">
	.st0{fill:#FFFE9F;}
	.st1{fill:#E5E5E5;}
	.st2{fill:#AFAFAF;}
</style>
<g>
	<polygon class="st0" points="286.1,247.4 366.7,242.9 321.2,309.6 350.3,384.9 272.9,362.2 210.3,413.2 207.9,332.5 140.1,288.8 
		216.1,261.5 236.7,183.5 	"/>
	<polygon class="st0" points="105.5,391.8 154.1,389.1 126.7,429.4 144.3,474.8 97.5,461.1 59.8,491.9 58.3,443.2 17.4,416.8 
		63.3,400.4 75.7,353.3 	"/>
</g>
<path class="st1" d="M785.5,224c-16.2-31.1-27.8-45.7-27.8-45.7C720.1,125.2,668.4,81.1,604.9,52c-63.4-29-130.6-39.2-195.3-33
	c76.5,107.8,95.1,252.2,36.2,381S265.5,609.2,134,621.9c37.6,53,89.3,97.1,152.7,126.1c192.2,87.9,419.2,3.3,507.1-188.9
	c42.6-93.3,44.7-194.7,13.5-284.5L785.5,224"/>
<g>
	
		<ellipse transform="matrix(0.4158 -0.9094 0.9094 0.4158 -23.5794 931.5572)" class="st2" cx="713.3" cy="484.1" rx="34.8" ry="34.8"/>
	<ellipse class="st2" cx="644.6" cy="299.7" rx="71.3" ry="71.3"/>
</g>
<path d="M691.6,531.5c26.2,12,57.2,0.4,69.1-25.8c12-26.2,0.4-57.2-25.8-69.1c-26.2-12-57.2-0.4-69.1,25.8
	C653.9,488.5,665.5,519.6,691.6,531.5z M720.6,468.3c8.7,4,12.6,14.3,8.6,23s-14.3,12.6-23,8.6s-12.6-14.3-8.6-23
	S711.8,464.3,720.6,468.3z"/>
<path d="M681.5,219c-44.5-20.3-97.2-0.7-117.5,43.8s-0.7,97.2,43.8,117.5s97.2,0.7,117.5-43.8S726,239.4,681.5,219z M622.2,348.7
	c-27-12.4-39-44.4-26.6-71.4s44.4-39,71.4-26.6s39,44.4,26.6,71.4C681.3,349.1,649.3,361.1,622.2,348.7z"/>
<path d="M395.4,29.1c75.4,106.1,88.6,245.4,34.5,363.6s-168,199.4-297.5,211.8c-6.2,0.6-11.6,4.4-14.2,10.1s-2,12.2,1.6,17.3
	c40.5,57,95.7,102.6,159.6,131.9c97.2,44.4,205.8,48.4,305.9,11.1C685.4,737.6,765,663.6,809.5,566.4c43-94.1,48-199.7,14.1-297.5
	c-3.1-9.1-13.1-13.9-22.1-10.7c-9.1,3.1-13.9,13.1-10.7,22.1c31,89.2,26.4,185.7-12.9,271.6c-83.7,183.1-300.9,264-484,180.3
	c-49.4-22.6-93.1-55.9-127.8-97.1c57.7-10.1,112.8-32.7,160.9-66.3c58.3-40.7,104.8-96.5,134.5-161.5s41.5-136.7,34.2-207.4
	c-6.1-58.4-25-114.9-55.1-165.1c53.9-0.8,107.6,10.5,157,33.1c58.5,26.7,108.9,68.4,145.9,120.6c5.6,7.8,16.4,9.7,24.2,4.1
	c7.8-5.6,9.7-16.4,4.1-24.2C731.3,111.3,676,65.6,612,36.3C548.2,7,477.6-4.9,408,1.7c-6.2,0.6-11.6,4.5-14.2,10.1
	C391.2,17.5,391.8,24.1,395.4,29.1z"/>
<path d="M781.5,240.9c1.1,0.3,2.2,0.4,3.4,0.5c1.1,0,2.3,0,3.4-0.2c1.1-0.2,2.2-0.5,3.3-0.9c4.3-1.6,7.8-4.9,9.7-9.1
	c0.5-1,0.8-2.1,1.1-3.2c0.3-1.1,0.4-2.2,0.5-3.4c0-1.1,0-2.3-0.2-3.4c-0.2-1.1-0.5-2.2-0.9-3.3s-0.9-2.1-1.5-3.1s-1.3-1.9-2.1-2.7
	s-1.6-1.6-2.5-2.3s-1.9-1.3-2.9-1.7c-4.2-1.9-9-2.1-13.3-0.5c-1.1,0.4-2.1,0.9-3.1,1.5s-1.9,1.3-2.7,2.1s-1.6,1.6-2.3,2.5
	s-1.3,1.9-1.7,2.9c-1.9,4.2-2.1,9-0.5,13.3C771.2,235.4,775.9,239.6,781.5,240.9z"/>
<path d="M130.6,303.4l60.1,38.8l2.1,71.5c0.2,6.6,4.1,12.5,10.2,15.3c6,2.8,13.1,1.8,18.2-2.3l55.5-45.2l68.7,20.1
	c6.4,1.9,13.2-0.1,17.7-4.9c4.5-4.9,5.8-11.9,3.4-18l-25.8-66.8l40.3-59.1c3.7-5.5,4-12.6,0.8-18.3c-3.3-5.8-9.5-9.2-16.1-8.8
	l-71.5,3.9L250.4,173c-1.8-2.3-4-4-6.5-5.2c-3.3-1.5-7-2-10.7-1.2c-6.5,1.3-11.7,6.2-13.4,12.6l-18.3,69.2l-67.4,24.1
	c-6.2,2.2-10.7,7.8-11.4,14.4C122,293.3,125.1,299.8,130.6,303.4z M221.9,277.9c5.4-1.9,9.5-6.4,10.9-11.9l11.6-44l27.8,36
	c1.7,2.3,4,4,6.5,5.2s5.3,1.7,8.2,1.5l45.4-2.5l-25.5,37.6c-3.2,4.7-3.9,10.7-1.9,16.1l16.4,42.4l-43.5-12.8
	c-5.5-1.6-11.4-0.4-15.9,3.2l-35.3,28.7l-1.3-45.5c-0.2-5.7-3.1-11-8-14.1l-38.2-24.7L221.9,277.9z"/>
<path d="M0.1,414.8c-0.8,6.6,2.3,13,7.8,16.6l33.2,21.5l1.2,39.5c0.2,6.6,4.1,12.5,10.2,15.3c6,2.8,13.1,1.8,18.2-2.3l30.7-25
	l38,11.1c6.4,1.9,13.2-0.1,17.7-4.9c4.5-4.9,5.8-11.9,3.4-18l-14.3-36.9l22.3-32.7c3.7-5.5,4-12.6,0.8-18.3
	c-3.3-5.8-9.5-9.2-16.1-8.8l-39.5,2.1l-24.2-31.3c-1.8-2.3-4-4-6.5-5.2c-3.3-1.5-7-2-10.7-1.2c-6.5,1.3-11.7,6.2-13.4,12.6
	l-10.1,38.2l-37.2,13.3C5.3,402.6,0.9,408.2,0.1,414.8z M69.1,416.7c5.4-1.9,9.5-6.4,10.9-11.9l3.4-13l8.2,10.7c1.7,2.3,4,4,6.5,5.2
	s5.3,1.7,8.2,1.5l13.4-0.7l-7.6,11.1c-3.2,4.7-3.9,10.7-1.9,16.1l4.9,12.6l-12.9-3.8c-5.5-1.6-11.4-0.4-15.9,3.2l-10.4,8.5
	l-0.4-13.5c-0.2-5.7-3.1-11-8-14.1l-11.3-7.3L69.1,416.7z"/>
</svg>
